<?xml version="1.0" standalone="no"?>
<!DOCTYPE svg PUBLIC "-//W3C//DTD SVG 20010904//EN"
 "http://www.w3.org/TR/2001/REC-SVG-20010904/DTD/svg10.dtd">
<svg version="1.0" xmlns="http://www.w3.org/2000/svg"
 width="512.000000pt" height="512.000000pt" viewBox="0 0 512.000000 512.000000"
 preserveAspectRatio="xMidYMid meet">
<metadata>
Created by potrace 1.11, written by Peter Selinger 2001-2013
</metadata>
<g transform="translate(0.000000,512.000000) scale(0.100000,-0.100000)"
fill="#000000" stroke="none">
<path d="M2519 5116 c-2 -2 -42 -9 -89 -14 -85 -11 -166 -31 -228 -58 -18 -8
-45 -14 -61 -14 -15 0 -54 -9 -87 -20 -32 -11 -84 -20 -114 -20 -30 -1 -73 -8
-95 -16 -22 -9 -62 -20 -88 -24 -27 -5 -63 -17 -80 -27 -42 -25 -94 -94 -107
-143 -6 -22 -35 -70 -64 -106 -95 -118 -165 -284 -153 -359 9 -53 -39 -165
-64 -150 -4 3 -9 -35 -11 -83 -4 -76 -9 -96 -41 -157 -42 -81 -68 -144 -112
-273 -18 -51 -43 -104 -55 -117 -16 -17 -23 -35 -21 -58 1 -17 4 -164 7 -324
l5 -293 -39 -15 c-23 -9 -44 -27 -51 -41 -14 -32 -15 -370 0 -502 5 -53 16
-119 24 -147 7 -27 16 -75 19 -105 12 -99 54 -209 95 -241 28 -23 98 -25 126
-5 19 13 22 10 52 -55 17 -38 37 -86 45 -106 7 -21 23 -55 35 -77 21 -38 21
-39 2 -70 -10 -17 -19 -43 -19 -57 0 -27 10 -43 123 -195 32 -44 75 -104 95
-134 20 -30 59 -84 87 -120 59 -76 145 -217 145 -237 0 -8 4 -12 9 -9 14 9
131 -209 131 -246 0 -5 12 -27 27 -51 14 -23 26 -44 26 -47 -1 -6 2 -13 16
-59 14 -44 14 -51 -3 -51 -27 0 -67 -45 -76 -84 -7 -33 -5 -47 17 -90 14 -28
37 -66 51 -85 l25 -34 156 6 c86 4 174 11 196 16 22 6 94 11 160 11 146 1 276
25 362 69 34 17 64 31 67 31 2 0 39 20 80 45 42 25 81 45 86 45 6 0 10 4 10 8
0 5 28 21 63 37 172 77 223 101 251 118 17 9 60 31 95 47 107 51 272 180 316
249 13 20 47 59 77 87 29 28 90 86 136 130 l82 80 0 158 0 159 -45 -5 c-31 -4
-48 -1 -56 8 -7 8 -9 18 -5 21 4 4 11 1 16 -7 8 -12 10 -10 10 8 0 19 -4 22
-20 17 -11 -3 -20 -2 -20 4 0 5 10 11 23 13 12 2 -20 4 -71 4 -51 0 -87 -3
-80 -8 10 -5 8 -8 -4 -8 -10 0 -18 4 -18 8 0 4 -39 8 -87 8 -101 -1 -197 10
-231 27 -24 11 -24 12 -18 147 8 177 22 349 31 377 7 21 12 22 77 17 64 -5 76
-3 132 25 33 17 72 41 86 54 33 30 80 102 80 123 0 10 6 25 14 33 32 36 56
196 56 376 -1 271 -25 358 -129 459 -33 32 -48 40 -90 44 -49 4 -51 6 -51 35
0 17 7 58 15 92 13 49 15 111 12 330 -3 149 -9 353 -15 455 -6 102 -12 228
-13 280 -2 112 -33 226 -108 399 -51 115 -94 177 -164 234 -82 67 -149 87
-288 87 -80 0 -99 3 -112 18 -10 10 -14 22 -10 27 5 4 3 5 -3 2 -6 -4 -26 5
-45 19 -42 32 -109 63 -152 71 -17 3 -44 12 -59 19 -19 10 -68 14 -161 14 -73
0 -136 -2 -138 -4z"/>
<path d="M3666 4735 c4 -8 8 -15 10 -15 2 0 4 7 4 15 0 8 -4 15 -10 15 -5 0
-7 -7 -4 -15z"/>
<path d="M1283 4228 c-2 -16 1 -18 10 -9 7 7 8 14 1 21 -6 6 -10 2 -11 -12z"/>
<path d="M1206 4056 c-4 -15 -5 -31 -1 -34 3 -3 5 0 5 6 0 7 6 12 14 12 15 0
30 29 21 39 -3 3 -10 -1 -14 -8 -7 -11 -9 -11 -13 0 -3 8 -8 1 -12 -15z"/>
<path d="M3960 1940 c0 -13 7 -20 20 -20 13 0 20 7 20 20 0 13 -7 20 -20 20
-13 0 -20 -7 -20 -20z"/>
<path d="M1600 820 c0 -13 7 -20 20 -20 13 0 20 7 20 20 0 13 -7 20 -20 20
-13 0 -20 -7 -20 -20z"/>
</g>
</svg>
